<?xml version="1.0" encoding="UTF-8" standalone="no"?>
<!-- Created with Inkscape (http://www.inkscape.org/) -->

<svg
   version="1.1"
   id="svg1"
   width="925.28156"
   height="921.63336"
   viewBox="0 0 925.28156 921.63336"
   sodipodi:docname="GitVegas2.svg"
   inkscape:version="1.4 (e7c3feb1, 2024-10-09)"
   xmlns:inkscape="http://www.inkscape.org/namespaces/inkscape"
   xmlns:sodipodi="http://sodipodi.sourceforge.net/DTD/sodipodi-0.dtd"
   xmlns="http://www.w3.org/2000/svg"
   xmlns:svg="http://www.w3.org/2000/svg">
  <defs
     id="defs1" />
  <sodipodi:namedview
     id="namedview1"
     pagecolor="#ffffff"
     bordercolor="#000000"
     borderopacity="0.25"
     inkscape:showpageshadow="2"
     inkscape:pageopacity="0.0"
     inkscape:pagecheckerboard="0"
     inkscape:deskcolor="#d1d1d1"
     inkscape:zoom="0.5"
     inkscape:cx="491"
     inkscape:cy="531"
     inkscape:window-width="1600"
     inkscape:window-height="828"
     inkscape:window-x="0"
     inkscape:window-y="38"
     inkscape:window-maximized="0"
     inkscape:current-layer="g1" />
  <g
     inkscape:groupmode="layer"
     inkscape:label="Image"
     id="g1"
     transform="translate(-50.866834,-47.568691)">
    <path
       style="fill:#000000"
       d="M 479.5,967.90102 C 129.25396,941.88436 -66.548045,544.7273 127.29388,253.5 327.99299,-48.02951 782.70009,-11.629003 934.62011,318.1286 1079.3288,632.2333 826.17975,993.65277 479.5,967.90102 Z m 47,-158.89377 c 11.20081,-1.83164 16.71818,-4.34129 48.37628,-22.00456 93.22853,-52.0158 113.96277,-63.50903 150.12372,-83.21537 21.725,-11.83929 41.47642,-22.52654 43.89204,-23.74944 6.48772,-3.28438 13.57201,-10.40081 16.2504,-16.32412 L 787.5,658.5 v -46 c 0,-65.5835 1.40267,-63.10371 -45.55427,-80.53571 C 716.70207,522.59299 620.13557,486.56977 584,473.04413 l -20.5,-7.67321 -0.5,17.56454 c -0.275,9.6605 -0.5,17.62371 -0.5,17.69602 0,0.0723 2.70299,1.48601 6.00665,3.14155 75.60788,37.88886 -13.9629,105.21032 -104.80227,78.76945 C 411.12206,567.2372 404.4119,521.71164 451.84257,502.06521 L 455,500.75736 v -14.48567 c 0,-11.18529 -0.2848,-14.37314 -1.25,-13.99175 -3.44122,1.35973 -108.34299,45.75407 -164.75,69.72206 -58.15179,24.70936 -55,19.96139 -55,82.85401 0,60.12145 -0.41054,59.22302 34.5,75.50068 8.8,4.10316 38.275,17.88961 65.5,30.63655 182.03313,85.22925 172.35722,81.30791 192.5,78.01401 z M 555,649.36522 C 509.2259,640.69336 519.11789,600 567,600 c 43.24844,0 58.94123,33.84608 21.79942,47.01683 -6.20916,2.20181 -26.96203,3.64373 -33.79942,2.34839 z M 655.53078,592.88664 C 610.82241,586.3744 612.6868,548.75541 658,543.0637 c 36.71316,-4.61146 64.73948,22.3749 41.58075,40.03783 -7.12372,5.43319 -30.99795,12.27446 -37.58075,10.76894 -0.275,-0.0629 -3.18615,-0.50562 -6.46922,-0.98383 z M 516.86419,544.02576 c 8.97161,-1.70143 16.33798,-5.18864 18.85027,-8.92364 L 538,531.70423 l 0.0637,-98.10211 0.0637,-98.10212 8.68631,-4.189 C 615.53273,298.17097 601.2685,192.39882 526,176.97321 432.78439,157.86951 386.05744,286.57348 469.9378,331.39005 l 6.04607,3.23037 0.25806,98.93979 c 0.27962,107.20062 1.1e-4,101.7289 5.44848,106.65962 4.49774,4.07039 23.1418,6.08774 35.17378,3.80593 z"
       id="path1" />
  </g>
</svg>
