<?xml version="1.0" encoding="UTF-8" standalone="no"?>
<!-- Created with Inkscape (http://www.inkscape.org/) -->

<svg
   version="1.1"
   id="svg1"
   width="924.71936"
   height="923.85822"
   viewBox="0 0 924.71936 923.85822"
   sodipodi:docname="GitVegas.svg"
   inkscape:version="1.4 (e7c3feb1, 2024-10-09)"
   xmlns:inkscape="http://www.inkscape.org/namespaces/inkscape"
   xmlns:sodipodi="http://sodipodi.sourceforge.net/DTD/sodipodi-0.dtd"
   xmlns="http://www.w3.org/2000/svg"
   xmlns:svg="http://www.w3.org/2000/svg">
  <defs
     id="defs1" />
  <sodipodi:namedview
     id="namedview1"
     pagecolor="#ffffff"
     bordercolor="#000000"
     borderopacity="0.97254902"
     inkscape:showpageshadow="2"
     inkscape:pageopacity="0.0"
     inkscape:pagecheckerboard="true"
     inkscape:deskcolor="#d1d1d1"
     inkscape:zoom="1"
     inkscape:rotation="1"
     inkscape:cx="470.92547"
     inkscape:cy="220.81485"
     inkscape:window-width="1728"
     inkscape:window-height="1385"
     inkscape:window-x="1409"
     inkscape:window-y="25"
     inkscape:window-maximized="0"
     inkscape:current-layer="g1" />
  <g
     inkscape:groupmode="layer"
     inkscape:label="Image"
     id="g1"
     transform="translate(-44.080095,-69.863753)">
    <path
       style="fill:#010101;stroke:none"
       d="m 497.42008,70.560343 c -14.13455,1.85589 -28.74985,1.31878 -43,2.74463 -29.83121,2.9848 -59.36316,9.83459 -88,18.55169 C 253.57395,126.20731 154.76938,207.52866 98.728716,311.13596 -4.6330782,502.23002 42.124971,746.47092 209.42008,885.70078 c 56.35535,46.90124 123.78571,79.67224 195,96.5509 51.72296,12.25897 107.38715,14.52094 160,7.60266 C 796.94669,959.27848 978.7017,748.8414 968.38071,513.13596 960.03269,322.48862 831.34031,154.10941 650.42008,93.802653 c -35.26733,-11.7558 -71.92981,-19.20343 -109,-21.75617 -14.24884,-0.9812 -29.77167,-3.35437 -44,-1.48614 m 233,504.575617 -9,-105 c 13.62903,0.0376 18.99121,6.76276 19,20 h 20 c -3.47009,-31.06781 0,-64.66858 0,-96 0,-9.05469 3.60394,-27.93585 -1.02777,-35.78705 -2.34442,-3.974 -8.47485,-5.65643 -11.97223,-8.54169 -8.69928,-7.17669 -14.56775,-16.53466 -16.53625,-27.67126 -8.87836,-50.2276 64.84411,-74.67773 85.66046,-27 7.26831,16.6474 4.32446,36.69745 -8.21759,49.98535 -5.00885,5.3067 -18.1742,9.41199 -18.84797,17.01929 -4.18365,47.23517 0.94135,96.54895 0.94135,143.99536 0,18.66577 4.93774,44.13647 -9.3009,58.81555 -13.15827,13.56531 -33.61585,10.18445 -50.6991,10.18445 m -46,-234 -436,-1 c 2.86511,-24.99878 -1.96959,-50.0777 26,-62.68671 8.30164,-3.74249 16.22223,-2.79229 25,-3.45831 21.54065,-1.63434 43.37881,-0.85498 65,-0.85498 h 202 c 19.68402,0 39.26562,0.87323 58.91052,0.42438 12.4314,-0.284 26.77002,-1.78205 38.08948,4.37579 23.92682,13.01624 19.20734,40.48718 21,63.19983 m 0,27 5.83026,62 12.33948,137 4.83026,54 h -481 l 11.16975,-130 9.83025,-123 h 437 m -137,49.46838 c -15.03375,2.91486 -12.71027,21.85376 -11.91052,33.53162 1.94775,28.4425 1.91052,57.47485 1.91052,86 0,11.08533 -3.16443,28.03821 2.41742,37.98456 5.32941,9.49664 18.42548,7.01544 27.58258,7.01544 h 56 c 8.8194,0 19.38989,1.58716 28,-0.39429 15.26471,-3.51281 8.85028,-24.75122 8.08948,-35.60571 -2.10248,-29.99707 -4.05976,-60.07019 -6.91974,-90 -0.89142,-9.32898 1.10907,-24.86176 -4.02777,-32.95605 -5.05554,-7.96619 -17.11383,-6.04395 -25.14197,-6.04395 -24.08508,0 -52.37317,-4.11255 -76,0.46838 m -253.99615,1.27393 c -9.02198,3.49396 -8.90067,16.17004 -9,24.25769 -0.28269,23.01776 -3.45298,45.98004 -4.0185,69 -0.38473,15.66034 -2.93506,31.32709 -2.98535,47 -0.0176,5.49402 -2.10822,12.02405 1.00925,16.95605 5.37298,8.50031 18.44561,6.04395 26.99075,6.04395 h 59 c 8.48401,0 20.00034,2.00024 27.99924,-1.14819 9.4989,-3.73877 9.00076,-14.31397 9.00076,-22.85181 v -64 c 0,-16.71863 1,-33.27869 1,-50 0,-6.40344 1.58115,-15.3009 -2.00925,-20.95605 -4.84509,-7.63141 -17.24051,-5.04395 -24.99075,-5.04395 h -57 c -7.37961,0 -18.05396,-1.94617 -24.99615,0.74231 m 125.99691,-0.0895 c -10.31353,3.25075 -9.00076,14.76125 -9.00076,23.34719 0,22.995 0.2608,46.00677 -0.004,69 -0.17251,15.00061 -0.996,29.96484 -0.996,45 0,6.34753 -1.26932,14.21704 2.36728,19.81482 5.39285,8.30115 17.18341,6.18518 25.63272,6.18518 h 56 c 7.96774,0 18.35419,1.74841 26,-0.65277 10.78638,-3.38745 10,-14.24982 10,-23.34723 0,-22.9549 -1,-45.97644 -1,-69 0,-15.02014 -1,-29.94525 -1,-45 0,-5.90363 1.64185,-14.79681 -1.74231,-19.95679 -5.36304,-8.17718 -16.89935,-6.04321 -25.25769,-6.04321 h -55 c -7.96167,0 -18.36145,-1.75464 -25.99924,0.65277 m 83.99924,32.34723 c 0.0169,6.12445 2.13892,12.9939 0.57022,19 -2.00629,7.6814 -8.94888,14.6004 -12.14197,22 -7.73736,17.93042 -12.02493,37.46277 -12.42825,57 h -27 c 0.0161,-24.4906 9.3111,-56.71497 26,-75 -10.39383,0 -26.99414,-4.31244 -29,9 h -14 v -32 h 68 m 127,-1 c 0,6.0155 1.54297,14.27228 -0.22302,20 -3.33728,10.82385 -12.31183,20.90942 -16.34101,32 -5.31012,14.61658 -7.43597,30.52289 -7.43597,46 h -29 c 6.13239,-25.75842 8.95868,-52.78064 27,-74 h -28 v 9 h -14 v -32 l 68,-1 m -252,1 c 0,6.07324 1.87512,15.34302 -0.15817,21 -3.05896,8.5105 -11.22357,15.36005 -14.83023,24 -6.728,16.11725 -10.86664,34.48566 -11.0116,52 h -28 c 5.19684,-27.89386 11.98685,-50.67194 27,-75 l -28,1 v 9 h -12 l -1,-32 h 68 M 212.47486,649.73935 c 8.93466,-3.56195 24.34456,-0.60339 33.94522,-0.60339 h 79 272 90 c 10.51465,0 28.20752,-3.42242 37.89124,0.74231 8.14654,3.50354 4.10876,29.65973 4.10876,37.25769 0,22.35376 1,44.61133 1,67 0,16.83215 -0.14252,31.63043 -17,40.6759 -12.138,6.51313 -27.71204,4.3241 -41,4.3241 h -81 -254 -74 c -11.68561,0 -25.95218,2.23828 -37,-2.06946 -17.38226,-6.77759 -20,-22.50708 -20,-38.93054 0,-23.38635 1,-46.61169 1,-70 0,-8.24164 -4.28113,-34.67468 5.05478,-38.39661 m 135.94522,99.39661 h 240 v -31 c -3.1e-4,-4.74927 0.63605,-9.9342 -3.22839,-13.44287 -12.19306,-11.07056 -37.74305,-6.55713 -52.77161,-6.55713 h -127 c -14.45819,0 -38.58438,-4.42517 -50.95679,4.65198 -11.09161,8.13745 -6.04321,34.08594 -6.04321,46.34802 z"
       id="path1" />
  </g>
</svg>
