<?xml version="1.0" encoding="UTF-8" standalone="no"?>
<!-- Created with Inkscape (http://www.inkscape.org/) -->

<svg
   version="1.1"
   id="svg1"
   width="924.71936"
   height="923.85822"
   viewBox="0 0 924.71936 923.85822"
   sodipodi:docname="GitVegas.svg"
   inkscape:version="1.4 (e7c3feb1, 2024-10-09)"
   xmlns:inkscape="http://www.inkscape.org/namespaces/inkscape"
   xmlns:sodipodi="http://sodipodi.sourceforge.net/DTD/sodipodi-0.dtd"
   xmlns="http://www.w3.org/2000/svg"
   xmlns:svg="http://www.w3.org/2000/svg">
  <defs
     id="defs1" />
  <sodipodi:namedview
     id="namedview1"
     pagecolor="#ffffff"
     bordercolor="#000000"
     borderopacity="0.97254902"
     inkscape:showpageshadow="2"
     inkscape:pageopacity="0.0"
     inkscape:pagecheckerboard="true"
     inkscape:deskcolor="#d1d1d1"
     inkscape:zoom="1"
     inkscape:rotation="1"
     inkscape:cx="332.21803"
     inkscape:cy="525.282"
     inkscape:window-width="1728"
     inkscape:window-height="1051"
     inkscape:window-x="0"
     inkscape:window-y="38"
     inkscape:window-maximized="0"
     inkscape:current-layer="g1" />
  <g
     inkscape:groupmode="layer"
     inkscape:label="Image"
     id="g1"
     transform="translate(-44.080095,-69.863753)">
    <path
       style="fill:#010101;stroke:none"
       d="m 497.42008,70.560343 c -14.13455,1.85589 -28.74985,1.31878 -43,2.74463 -29.83121,2.9848 -59.36316,9.83459 -88,18.55169 C 253.57395,126.20731 154.76938,207.52866 98.728716,311.13596 -4.6330782,502.23002 42.124971,746.47092 209.42008,885.70078 c 56.35535,46.90124 123.78571,79.67224 195,96.5509 51.72296,12.25897 107.38715,14.52094 160,7.60266 C 796.94669,959.27848 978.7017,748.8414 968.38071,513.13596 960.03269,322.48862 831.34031,154.10941 650.42008,93.802653 c -35.26733,-11.7558 -71.92981,-19.20343 -109,-21.75617 -14.24884,-0.9812 -29.77167,-3.35437 -44,-1.48614 m 233,504.575617 -9,-105 c 13.62903,0.0376 18.99121,6.76276 19,20 h 20 c -3.47009,-31.06781 0,-64.66858 0,-96 0,-9.05469 3.60394,-27.93585 -1.02777,-35.78705 -2.34442,-3.974 -8.47485,-5.65643 -11.97223,-8.54169 -8.69928,-7.17669 -14.56775,-16.53466 -16.53625,-27.67126 -8.87836,-50.2276 64.84411,-74.67773 85.66046,-27 7.26831,16.6474 4.32446,36.69745 -8.21759,49.98535 -5.00885,5.3067 -18.1742,9.41199 -18.84797,17.01929 -4.18365,47.23517 0.94135,96.54895 0.94135,143.99536 0,18.66577 4.93774,44.13647 -9.3009,58.81555 -13.15827,13.56531 -33.61585,10.18445 -50.6991,10.18445 m -46,-234 -436,-1 c 2.86511,-24.99878 -1.96959,-50.0777 26,-62.68671 8.30164,-3.74249 16.22223,-2.79229 25,-3.45831 21.54065,-1.63434 43.37881,-0.85498 65,-0.85498 h 202 c 19.68402,0 39.26562,0.87323 58.91052,0.42438 12.4314,-0.284 26.77002,-1.78205 38.08948,4.37579 23.92682,13.01624 19.20734,40.48718 21,63.19983 m 0,27 5.83026,62 12.33948,137 4.83026,54 h -481 l 11.16975,-130 9.83025,-123 h 437 m -137,49.46838 c -15.03375,2.91486 -12.71027,21.85376 -11.91052,33.53162 1.94775,28.4425 1.91052,57.47485 1.91052,86 0,11.08533 -3.16443,28.03821 2.41742,37.98456 5.32941,9.49664 18.42548,7.01544 27.58258,7.01544 h 56 c 8.8194,0 19.38989,1.58716 28,-0.39429 15.26471,-3.51281 8.85028,-24.75122 8.08948,-35.60571 -2.10248,-29.99707 -4.05976,-60.07019 -6.91974,-90 -0.89142,-9.32898 1.10907,-24.86176 -4.02777,-32.95605 -5.05554,-7.96619 -17.11383,-6.04395 -25.14197,-6.04395 -24.08508,0 -52.37317,-4.11255 -76,0.46838 m -253.99615,1.27393 c -9.02198,3.49396 -8.90067,16.17004 -9,24.25769 -0.28269,23.01776 -3.45298,45.98004 -4.0185,69 -0.38473,15.66034 -2.93506,31.32709 -2.98535,47 -0.0176,5.49402 -2.10822,12.02405 1.00925,16.95605 5.37298,8.50031 18.44561,6.04395 26.99075,6.04395 h 59 c 8.48401,0 20.00034,2.00024 27.99924,-1.14819 9.4989,-3.73877 9.00076,-14.31397 9.00076,-22.85181 v -64 c 0,-16.71863 1,-33.27869 1,-50 0,-6.40344 1.58115,-15.3009 -2.00925,-20.95605 -4.84509,-7.63141 -17.24051,-5.04395 -24.99075,-5.04395 h -57 c -7.37961,0 -18.05396,-1.94617 -24.99615,0.74231 m 125.99691,-0.0895 c -10.31353,3.25075 -9.00076,14.76125 -9.00076,23.34719 0,22.995 0.2608,46.00677 -0.004,69 -0.17251,15.00061 -0.996,29.96484 -0.996,45 0,6.34753 -1.26932,14.21704 2.36728,19.81482 5.39285,8.30115 17.18341,6.18518 25.63272,6.18518 h 56 c 7.96774,0 18.35419,1.74841 26,-0.65277 10.78638,-3.38745 10,-14.24982 10,-23.34723 0,-22.9549 -1,-45.97644 -1,-69 0,-15.02014 -1,-29.94525 -1,-45 0,-5.90363 1.64185,-14.79681 -1.74231,-19.95679 -5.36304,-8.17718 -16.89935,-6.04321 -25.25769,-6.04321 h -55 c -7.96167,0 -18.36145,-1.75464 -25.99924,0.65277 m 83.99924,32.34723 c 0.0169,6.12445 2.13892,12.9939 0.57022,19 -2.00629,7.6814 -8.94888,14.6004 -12.14197,22 -7.73736,17.93042 -12.02493,37.46277 -12.42825,57 h -27 c 0.0161,-24.4906 9.3111,-56.71497 26,-75 -10.39383,0 -26.99414,-4.31244 -29,9 h -14 v -32 h 68 m 127,-1 c 0,6.0155 1.54297,14.27228 -0.22302,20 -3.33728,10.82385 -12.31183,20.90942 -16.34101,32 -5.31012,14.61658 -7.43597,30.52289 -7.43597,46 h -29 c 6.13239,-25.75842 8.95868,-52.78064 27,-74 h -28 v 9 h -14 v -32 l 68,-1 m -252,1 c 0,6.07324 1.87512,15.34302 -0.15817,21 -3.05896,8.5105 -11.22357,15.36005 -14.83023,24 -6.728,16.11725 -10.86664,34.48566 -11.0116,52 h -28 c 5.19684,-27.89386 11.98685,-50.67194 27,-75 l -28,1 v 9 h -12 l -1,-32 h 68 M 212.47486,649.73935 c 8.93466,-3.56195 24.34456,-0.60339 33.94522,-0.60339 h 79 272 90 c 10.51465,0 28.20752,-3.42242 37.89124,0.74231 8.14654,3.50354 4.10876,29.65973 4.10876,37.25769 0,22.35376 1,44.61133 1,67 0,16.83215 -0.14252,31.63043 -17,40.6759 -12.138,6.51313 -27.71204,4.3241 -41,4.3241 h -81 -254 -74 c -11.68561,0 -25.95218,2.23828 -37,-2.06946 -17.38226,-6.77759 -20,-22.50708 -20,-38.93054 0,-23.38635 1,-46.61169 1,-70 0,-8.24164 -4.28113,-34.67468 5.05478,-38.39661 m 135.94522,99.39661 h 240 v -31 c -3.1e-4,-4.74927 0.63605,-9.9342 -3.22839,-13.44287 -12.19306,-11.07056 -37.74305,-6.55713 -52.77161,-6.55713 h -127 c -14.45819,0 -38.58438,-4.42517 -50.95679,4.65198 -11.09161,8.13745 -6.04321,34.08594 -6.04321,46.34802 z"
       id="path1" />
    <path
       style="vector-effect:non-scaling-stroke;fill:#ffffff;fill-rule:evenodd;stroke:#000000;-inkscape-stroke:hairline"
       d="m 477.79564,270.61427 c -75.36562,-0.2376 -167.25982,-0.48761 -204.20933,-0.55558 -36.94951,-0.068 -67.51651,-0.44765 -67.92667,-0.84374 -1.00316,-0.96875 0.85522,-25.7022 2.52337,-33.58368 2.66769,-12.60405 9.34529,-21.27927 20.63075,-26.80248 6.25438,-3.06095 7.16954,-3.21425 26.12831,-4.37669 10.8058,-0.66255 27.30008,-1.08985 36.65395,-0.94956 16.48789,0.24729 205.20591,0.41829 274.04607,0.24832 18.70205,-0.0462 36.93606,0.31107 40.52003,0.79389 17.16402,2.31225 28.57684,13.8666 31.47272,31.86299 0.61788,3.83981 1.37631,13.16549 1.68538,20.72375 l 0.56198,13.74228 -12.52908,0.0862 c -6.89099,0.0474 -74.19185,-0.10815 -149.55748,-0.34574 z"
       id="path2"
       transform="translate(44.080095,69.863753)" />
    <path
       style="vector-effect:non-scaling-stroke;fill:#ffffff;fill-rule:evenodd;stroke:#000000;-inkscape-stroke:hairline"
       d="m 602.70553,550.85469 c -7.15155,-0.0269 -78.9375,-0.0276 -159.52432,-0.001 -208.90492,0.0677 -259.42823,-0.0311 -259.92224,-0.50813 -0.23943,-0.23123 1.7105,-25.33126 4.3332,-55.77786 2.62269,-30.44661 7.31424,-86.85154 10.42566,-125.3443 3.11142,-38.49275 5.79066,-70.1251 5.95386,-70.2941 0.1632,-0.16899 61.27531,-0.3032 135.8047,-0.29824 74.52939,0.005 165.21186,-0.0278 201.5166,-0.0728 36.30475,-0.045 73.30413,0.0562 82.22084,0.22504 l 16.21222,0.3069 0.61632,4.13543 c 0.75312,5.05347 5.7875,59.97854 14.84061,161.91121 3.75604,42.29089 7.08979,78.80077 7.40833,81.13307 l 0.57916,4.24053 -23.73105,0.19687 c -13.05208,0.10828 -29.58233,0.17483 -36.73389,0.1479 z m 7.99907,-40.03681 c 5.98428,-3.22819 7.88261,-10.42516 6.30337,-23.89729 -0.52219,-4.45465 -2.1875,-24.95533 -3.70069,-45.55706 -1.5132,-20.60172 -3.26502,-42.62451 -3.89295,-48.93951 -0.62792,-6.315 -1.23156,-16.22313 -1.34141,-22.01805 -0.16941,-8.93573 -0.55315,-11.19905 -2.52625,-14.89964 -3.69319,-6.92665 -6.36344,-8.24025 -17.14519,-8.43436 -5.09242,-0.0917 -21.64553,-0.64318 -36.7847,-1.22555 -21.61324,-0.83141 -29.8834,-0.78003 -38.50169,0.23921 -13.3125,1.57439 -17.073,3.3462 -20.06818,9.4554 -2.74186,5.59253 -2.8428,10.37525 -1.03274,48.93374 0.95354,20.31243 1.17133,39.02325 0.70034,60.16656 -0.85007,38.1608 -0.11416,41.67636 9.78711,46.75461 1.92543,0.98752 12.81776,1.29763 45.99041,1.30936 23.90709,0.008 43.93895,0.22704 44.51526,0.48575 1.93729,0.86966 14.91093,-0.87008 17.69731,-2.37317 z m -131.54756,-0.66715 c 1.53055,-1.16239 3.65179,-3.89983 4.71385,-6.0832 1.8684,-3.84105 1.90068,-6.26353 0.99586,-74.70865 -0.86354,-65.32307 -1.07225,-71.01525 -2.72596,-74.34871 -3.4076,-6.86886 -4.0671,-6.95319 -56.60565,-7.23896 -31.04908,-0.16889 -47.80837,0.0998 -50.19813,0.80474 -4.1893,1.2358 -7.23939,4.84264 -8.41886,9.9556 -0.46115,1.99905 -0.98617,27.04078 -1.1667,55.64829 -0.18054,28.60751 -0.39706,59.95766 -0.48118,69.667 -0.17825,20.57702 0.49711,22.99816 7.46307,26.7548 4.18939,2.25929 4.6129,2.28066 40.75589,2.05756 20.08738,-0.124 36.74727,-0.0179 37.02198,0.23582 0.27471,0.25372 6.20625,0.21556 13.18123,-0.0848 10.92387,-0.47038 13.06749,-0.83903 15.4646,-2.65949 z m -128.85498,0.44153 c 2.21439,-1.22438 3.96758,-3.38505 5.3089,-6.54276 1.87316,-4.40979 2.00743,-7.26947 2.07645,-44.22197 0.0406,-21.72902 0.3743,-53.08851 0.74156,-69.68776 0.36727,-16.59926 0.36476,-31.30427 -0.006,-32.67781 -1.3185,-4.89022 -5.46453,-8.37119 -11.0797,-9.30242 -4.53004,-0.75127 -47.93959,-0.83196 -86.4016,-0.16061 -11.59195,0.20234 -12.29557,0.33323 -14.83298,2.7593 -4.39603,4.20312 -5.46321,8.47438 -6.14619,24.59934 -0.35002,8.26378 -1.32851,24.93865 -2.17442,37.05526 -0.8459,12.11661 -1.73268,26.53428 -1.97061,32.03927 -0.23793,5.50499 -0.79072,13.61588 -1.22843,18.02419 -0.4377,4.40831 -1.15639,15.06916 -1.59709,23.69078 -0.9728,19.03141 -0.22109,21.8107 6.67592,24.68277 3.85208,1.60409 8.77589,1.82352 45.82639,2.04226 53.20319,0.31408 60.55153,0.0533 64.80738,-2.29984 z"
       id="path3"
       transform="translate(44.080095,69.863753)" />
    <path
       style="vector-effect:non-scaling-stroke;fill:#ffffff;fill-rule:evenodd;stroke:#000000;-inkscape-stroke:hairline"
       d="m 513.67807,550.0581 c -53.35893,-0.0461 -137.52245,-0.0861 -187.03003,-0.0889 -125.64177,-0.007 -142.52539,-0.18448 -142.54551,-1.49851 -0.0425,-2.77521 20.54541,-248.20636 20.8469,-248.51856 0.317,-0.32826 84.26878,-0.51046 228.3428,-0.49556 33.00509,0.003 85.43798,-0.002 116.51754,-0.012 31.07956,-0.01 63.81307,0.13515 72.74116,0.32262 l 16.23286,0.34086 0.5887,3.13487 c 0.70052,3.73039 4.12651,40.91409 14.18174,153.92061 4.10509,46.13539 7.75538,85.79022 8.11176,88.12186 l 0.64796,4.23933 -25.80982,0.30863 c -14.1954,0.16974 -69.46712,0.27088 -122.82606,0.22475 z m 92.33931,-37.17683 c 6.00162,-0.92006 9.70122,-4.3111 11.43243,-10.47893 1.22828,-4.37599 0.63091,-14.20604 -5.16694,-85.02458 -1.05681,-12.90852 -2.39796,-31.35334 -2.98033,-40.98848 -0.96276,-15.92844 -1.28763,-17.91517 -3.57948,-21.88974 -4.33827,-7.52354 -5.42373,-7.798 -35.2521,-8.91361 -14.5057,-0.54253 -33.62414,-0.86951 -42.48543,-0.72661 -24.09512,0.38855 -31.17479,2.37024 -35.30561,9.88248 l -2.33988,4.25526 1.25966,72.16561 c 1.24502,71.32713 1.28417,72.19726 3.36933,74.89081 1.16031,1.49887 3.36834,3.63119 4.90671,4.73849 3.05213,2.19689 6.34288,2.35428 67.68175,3.23716 26.38386,0.37975 29.0056,0.3015 38.45989,-1.14786 z m -133.08803,-0.0358 c 6.88702,-1.25161 9.76254,-3.61161 12.02926,-9.87264 1.41392,-3.90549 1.46299,-11.84449 0.46422,-75.11887 -1.0993,-69.64453 -1.14983,-70.80606 -3.22868,-74.21552 -1.44627,-2.37197 -3.36359,-3.85698 -6.08315,-4.71155 -4.9098,-1.5428 -40.553,-2.40824 -75.49236,-1.83301 -23.83799,0.39246 -25.70956,0.55479 -28.77101,2.49539 -5.50685,3.49071 -5.95835,6.07728 -6.50755,37.28106 -0.79839,45.36213 -1.19537,111.38745 -0.67894,112.9226 0.26105,0.77601 0.76377,2.63021 1.11714,4.12042 0.79256,3.34231 5.12903,7.34747 9.38855,8.67127 2.66602,0.82855 27.21184,1.21387 83.8719,1.31661 4.40081,0.008 10.65159,-0.46711 13.89062,-1.05576 z M 350.4066,511.21087 c 2.02049,-1.07435 4.19845,-3.43775 5.3671,-5.82402 2.32462,-4.74665 2.59145,-12.06843 3.42881,-94.08275 0.50874,-49.82728 0.43455,-53.21201 -1.23656,-56.42249 -3.2009,-6.14942 -5.99805,-7.30103 -19.12395,-7.87352 -6.45975,-0.28174 -29.45039,-0.23735 -51.09033,0.0987 l -39.34533,0.61092 -3.25212,3.36767 c -1.78867,1.85222 -3.69471,5.14849 -4.23565,7.32504 -0.54094,2.17655 -1.87737,18.82523 -2.96985,36.99706 -1.09248,18.17184 -2.87089,46.10713 -3.95201,62.07843 -2.49301,36.82874 -2.40515,47.32115 0.42532,50.79306 1.13303,1.3898 3.75003,3.05747 5.81556,3.70594 4.79558,1.50556 29.73433,2.0071 72.77099,1.4635 30.59434,-0.38645 34.33808,-0.61044 37.39802,-2.2375 z"
       id="path4"
       transform="translate(44.080095,69.863753)" />
    <path
       style="vector-effect:non-scaling-stroke;fill:#ffffff;fill-rule:evenodd;stroke:#000000;-inkscape-stroke:hairline"
       d="m 686.3535,502.42898 c -0.038,-1.55661 -1.99607,-25.06493 -4.35134,-52.24071 -2.35526,-27.17579 -4.18678,-49.50942 -4.07004,-49.63031 0.56964,-0.58988 9.48105,1.80491 11.55156,3.10428 3.05067,1.91447 6.26953,8.72797 6.38094,13.50678 l 0.0874,3.74905 10.24842,-0.18013 10.24841,-0.18011 -0.44933,-30.24554 c -0.24714,-16.63504 -0.0733,-40.1536 0.38635,-52.26346 1.722,-45.36964 1.7228,-43.75989 -0.0239,-47.72926 -1.13594,-2.58146 -3.31412,-4.73356 -7.22962,-7.14302 -8.02583,-4.93882 -13.35493,-10.69527 -17.7294,-19.15112 -3.73816,-7.22587 -3.82353,-7.62827 -4.02122,-18.95374 -0.19193,-10.9958 -0.0488,-11.89599 2.87973,-18.10487 13.44668,-28.50931 53.66803,-35.92528 73.98441,-13.64116 16.68867,18.30503 14.91706,50.12192 -3.5587,63.91188 -2.28573,1.70603 -6.00966,4.48443 -8.2754,6.17423 -7.15678,5.33757 -7.48927,6.30731 -8.45198,24.65126 -0.61216,11.6644 -0.29453,37.66605 1.08102,88.49461 1.69037,62.46181 1.76317,72.9241 0.55068,79.14147 -2.52224,12.93351 -7.93031,20.55168 -18.14606,25.56174 -5.21229,2.55625 -6.58908,2.75481 -23.28143,3.35763 l -17.74152,0.64072 z"
       id="path5"
       transform="translate(44.080095,69.863753)" />
    <path
       style="vector-effect:non-scaling-stroke;fill:#ffffff;fill-rule:evenodd;stroke:#000000;-inkscape-stroke:hairline"
       d="m 545.16119,477.81179 -11.26466,-0.12252 0.56438,-2.72741 c 3.23151,-15.61653 9.12277,-38.50733 11.55915,-44.9137 3.1583,-8.30461 8.24293,-17.70124 12.24532,-22.62991 l 2.33457,-2.87487 -4.62707,-0.55212 c -2.54489,-0.30367 -9.06358,-0.47469 -14.48599,-0.38004 l -9.85893,0.17209 0.0785,4.49932 0.0785,4.49931 -6.49901,0.11344 -6.49901,0.11344 -0.27051,-15.49764 -0.27051,-15.49764 33.99482,-0.59338 33.99482,-0.59338 0.14615,8.373 c 0.18097,10.36762 -0.95089,13.85644 -9.01284,27.78114 -3.48695,6.02269 -7.39355,13.90504 -8.68134,17.51633 -2.94625,8.26205 -5.79409,23.61896 -6.49284,35.01261 -0.53206,8.67555 -0.56271,8.75907 -3.1531,8.59258 -1.43869,-0.0925 -7.68491,-0.22326 -13.88047,-0.29065 z"
       id="path6"
       transform="translate(44.080095,69.863753)" />
    <path
       style="vector-effect:non-scaling-stroke;fill:#ffffff;fill-rule:evenodd;stroke:#000000;-inkscape-stroke:hairline"
       d="m 280.87131,477.21382 c -0.0413,-2.36645 6.66179,-28.5458 9.4001,-36.71266 3.05089,-9.09911 10.62335,-25.73556 14.98155,-32.91395 1.287,-2.11982 2.33592,-4.08812 2.33093,-4.37401 -0.0124,-0.71247 -10.77538,-0.45489 -20.7445,0.49646 l -8.23753,0.78611 0.0769,4.40337 0.0769,4.40337 -5.25448,-0.21059 -5.25447,-0.21059 -0.5537,-15.89704 -0.55371,-15.89704 11.2858,0.45284 c 6.20719,0.24906 21.33662,0.27945 33.62095,0.0675 l 22.33516,-0.38531 -0.14922,10.84536 c -0.16572,12.04399 0.95145,9.30044 -11.23685,27.59567 -6.50066,9.75782 -11.71842,26.77242 -14.03459,45.76544 l -1.49729,12.278 -13.28758,0.23194 c -7.7936,0.13604 -13.2945,-0.16368 -13.30429,-0.7249 z"
       id="path7"
       transform="translate(44.080095,69.863753)" />
    <path
       style="vector-effect:non-scaling-stroke;fill:#ffffff;fill-rule:evenodd;stroke:#000000;-inkscape-stroke:hairline"
       d="m 408.85414,475.11309 c -0.20431,-11.70495 5.90208,-36.4754 12.2196,-49.56851 3.4836,-7.21981 9.61425,-16.91648 11.98306,-18.95327 3.27195,-2.81334 1.50916,-3.28051 -10.34241,-2.74093 -12.74574,0.58028 -15.13908,1.54505 -17.07434,6.88278 -0.73597,2.02991 -1.50001,2.27653 -7.37023,2.37899 l -6.54915,0.11432 0.003,-15.62329 0.003,-15.6233 27.99816,-0.34998 c 15.39898,-0.1925 30.5301,-0.12582 33.62471,0.14817 l 5.62656,0.49816 0.71646,6.62439 c 1.08793,10.05905 0.0905,13.46642 -7.23952,24.73116 -7.95482,12.22494 -14.66325,34.04181 -16.78457,54.58608 l -1.06045,10.27007 -12.8433,0.22418 -12.84331,0.22418 z"
       id="path8"
       transform="translate(44.080095,69.863753)" />
    <path
       style="vector-effect:non-scaling-stroke;fill:#ffffff;fill-rule:evenodd;stroke:#000000;-inkscape-stroke:hairline"
       d="m 520.80253,729.02293 c -77.85587,-0.11446 -177.64733,-0.0842 -311.5458,0.0946 -23.63496,0.0316 -28.62487,-1.09496 -36.16994,-8.16573 -9.41847,-8.8264 -10.85832,-16.86597 -10.06116,-56.17766 0.32551,-16.05235 0.41824,-39.27513 0.20607,-51.60618 -0.57655,-33.50769 -0.62457,-33.41895 18.26162,-33.74449 6.95463,-0.11988 65.30453,-0.11859 129.66646,0.003 124.30797,0.23458 329.65818,-0.0144 353.09207,-0.42817 22.38109,-0.39514 22.21893,-0.67468 21.13847,36.43743 -0.39798,13.67013 -0.34898,30.10459 0.10889,36.52104 1.17165,16.41903 -0.0417,50.44033 -2.00997,56.35609 -2.2817,6.85792 -7.39032,12.42013 -15.00658,16.33898 l -6.62366,3.40811 -23.51987,0.55065 c -12.93593,0.30286 -65.8274,0.48845 -117.5366,0.41243 z m 23.91963,-62.8195 c 0.26588,-7.37099 0.25224,-16.80063 -0.0303,-20.95476 -0.45702,-6.71972 -0.84135,-7.88321 -3.4837,-10.5466 -1.63352,-1.6465 -5.49128,-3.92882 -8.57281,-5.07181 -5.43291,-2.01515 -7.34639,-2.07026 -63.107,-1.81732 -31.62732,0.14346 -77.32281,0.0575 -101.54556,-0.19092 -40.8329,-0.41886 -44.46918,-0.31925 -49.91411,1.36723 -12.56777,3.89267 -15.72615,11.33098 -14.77809,34.80386 0.32974,8.16386 0.82826,15.05567 1.10783,15.31514 0.27958,0.25947 30.21323,0.49403 66.51923,0.52125 36.30601,0.0272 83.1141,0.0826 104.018,0.12318 20.90389,0.0405 45.04867,0.024 53.65508,-0.0369 l 15.64801,-0.11058 z"
       id="path9"
       transform="translate(44.080095,69.863753)" />
  </g>
</svg>
